<svg width="56" height="23" viewBox="0 0 56 23" fill="none" xmlns="http://www.w3.org/2000/svg">
<path d="M54.9968 6.37871C54.4865 5.79358 53.8526 5.3291 53.1409 5.0188C52.4292 4.70851 51.6575 4.56015 50.8815 4.58444C49.8874 4.5762 48.9056 4.80473 48.0172 5.25111V4.80666H43.8361L41.762 6.45278C41.1317 5.82454 40.3792 5.33238 39.5509 5.00676C38.7227 4.68113 37.8365 4.52899 36.9471 4.55975C35.1716 4.5353 33.437 5.09327 32.0088 6.14825L30.0087 7.79437C29.4598 6.75939 28.6248 5.90415 27.6032 5.33062C26.5817 4.7571 25.4167 4.4895 24.2473 4.55975C23.5651 4.56305 22.8856 4.64592 22.2226 4.80666H15.0949L11.243 7.85198L12.8891 0H8.07421L3.83545 3.39923L0 21.6958H4.83135L7.84375 19.3007L9.05365 21.6958H13.8521L14.955 20.8069C16.1672 21.6292 17.606 22.0522 19.0703 22.0168C20.8118 22.0411 22.5244 21.5701 24.0086 20.6588L26.0827 19.0127C26.6953 19.9718 27.5513 20.7514 28.5634 21.2719C29.5756 21.7924 30.7076 22.0353 31.8441 21.9757C33.5857 21.9999 35.2982 21.5289 36.7825 20.6176L37.013 20.4859L36.766 21.6547H41.5974L45.8526 18.2637L45.1365 21.6547H49.9597L54.1984 18.2554L55.8445 10.5187C56.0298 9.80979 56.0498 9.06779 55.9028 8.34997C55.7558 7.63215 55.4458 6.9577 54.9968 6.37871V6.37871Z" fill="#191919"/>
<path d="M19.4454 5.97121H15.4947L9.43699 10.7614L11.4782 1.16455H8.47401L5.02539 17.6586H8.02132L8.78677 14.1689L10.7868 12.6627L13.3877 17.6586H17.075L13.1984 11.0083L19.4454 5.97121Z" fill="white"/>
<path d="M35.597 15.7208C33.9509 15.7208 32.9961 14.8484 32.9714 12.9965H41.9757C43.0457 8.43673 40.6094 5.77825 36.9468 5.77825C35.3298 5.73531 33.7515 6.2767 32.5013 7.30317C31.2511 8.32963 30.4128 9.77237 30.1401 11.3668C29.3171 15.2681 31.6381 18.0089 35.4489 18.0089C38.239 18.0089 40.5271 16.7743 41.4407 15.1035L38.6835 14.1652C38.3557 14.6774 37.8963 15.0921 37.3533 15.3658C36.8103 15.6394 36.2037 15.7621 35.597 15.7208ZM36.7575 8.0252C37.1156 7.99852 37.4751 8.05025 37.8112 8.17678C38.1472 8.30331 38.4515 8.5016 38.7031 8.75782C38.9546 9.01405 39.1472 9.32204 39.2675 9.66034C39.3878 9.99864 39.4328 10.3591 39.3995 10.7166H33.3254C33.4954 9.93898 33.9311 9.24489 34.5574 8.7537C35.1838 8.26251 35.9618 8.00491 36.7575 8.0252V8.0252Z" fill="white"/>
<path d="M24.2105 5.77844C22.593 5.73377 21.0138 6.27453 19.7632 7.3013C18.5127 8.32806 17.6748 9.7718 17.4038 11.367C16.5807 15.2683 18.9018 18.0091 22.7125 18.0091C25.4945 18.0091 27.7826 16.7745 28.7044 15.1037L25.9554 14.1901C25.6237 14.7024 25.1612 15.1167 24.6156 15.3902C24.0701 15.6637 23.4614 15.7864 22.8524 15.7457C21.2063 15.7457 20.2516 14.8732 20.2351 13.0214H29.2888C30.3011 8.43692 27.8731 5.77844 24.2105 5.77844ZM20.5808 10.7168C20.7477 9.93689 21.1823 9.23999 21.8092 8.74691C22.436 8.25382 23.2157 7.99566 24.013 8.01716C24.3724 7.98904 24.7337 8.03999 25.0714 8.16643C25.4091 8.29287 25.7149 8.49173 25.9675 8.74903C26.2201 9.00634 26.4133 9.31584 26.5335 9.6558C26.6537 9.99575 26.698 10.3579 26.6632 10.7168H20.5808Z" fill="white"/>
<path d="M50.862 5.77588C50.0793 5.77608 49.306 5.94619 48.5955 6.27445C47.8849 6.60271 47.2542 7.08129 46.7467 7.67715H46.6891L46.7714 5.98164H44.2446L41.7754 17.6608H44.7713L45.9401 12.1464C46.5409 9.3068 48.1706 8.03106 49.8908 8.03106C51.3723 8.03106 51.9731 8.94466 51.5369 10.8459L50.1047 17.6691H53.1007L54.6398 10.3439C55.3559 7.15039 53.0431 5.77588 50.862 5.77588Z" fill="white"/>
</svg>
